<?xml version="1.0" encoding="utf-8"?>
<!-- Generator: Adobe Illustrator 18.0.0, SVG Export Plug-In . SVG Version: 6.00 Build 0)  -->
<!DOCTYPE svg PUBLIC "-//W3C//DTD SVG 1.1//EN" "http://www.w3.org/Graphics/SVG/1.1/DTD/svg11.dtd">
<svg version="1.1" id="Capa_1" xmlns="http://www.w3.org/2000/svg" xmlns:xlink="http://www.w3.org/1999/xlink" x="0px" y="0px"
	 viewBox="127.6 218.6 566.9 129.7" enable-background="new 127.6 218.6 566.9 129.7" xml:space="preserve">
<g>
	<g>
		<path d="M528.2,308.9c0,1.1,0.1,2.3,0.1,3.3c1.7,20.2,18.6,36.1,39.3,36.1c20.1,0,36.6-15,39-34.4c0.2-1.6,0.4-3.3,0.4-5
			c0-21.8-17.6-39.4-39.4-39.4C545.8,269.4,528.2,287.1,528.2,308.9z M592,305.5h-11.3c-0.3-1.2-0.8-2.4-1.4-3.5l8.1-8
			C589.8,297.4,591.5,301.3,592,305.5z M587.3,323.9l-8.1-8.1c0.6-1.1,1.1-2.2,1.4-3.4H592C591.5,316.6,589.7,320.5,587.3,323.9z
			 M571,322c1.2-0.3,2.3-0.8,3.4-1.3l8,8c-3.3,2.5-7.2,4.1-11.4,4.7V322z M571,295.7v-11.3c4.3,0.6,8.2,2.3,11.5,4.7l-8,8
			C573.4,296.6,572.2,296.1,571,295.7L571,295.7z M564.2,284.5v11.3c-1.2,0.4-2.4,0.9-3.5,1.5l-8-8
			C555.9,286.7,559.8,285,564.2,284.5L564.2,284.5z M552.7,328.6l8-8c1.1,0.6,2.2,1.1,3.4,1.4v11.3
			C559.9,332.8,556,331.1,552.7,328.6z M543.1,312.4h11.3c0.4,1.2,0.9,2.3,1.5,3.4l-8.1,8.1C545.3,320.6,543.7,316.6,543.1,312.4z
			 M554.5,305.5h-11.3c0.6-4.3,2.2-8.2,4.7-11.6l8,8C555.2,303.2,554.7,304.3,554.5,305.5L554.5,305.5z"/>
		<path d="M246.1,314.9c-1.1,9.3-5,17.6-10.6,24.5h283.5c0,0,0.2-29.2,0.2-30.5c0-14,6-26.4,15.4-35.3c-42.9-1.6-76,0.4-76,0.4
			l-3.6-13.2c-2-0.6-4-1.1-5.8-1.2c-6-0.6-12,1.9-15.8,6.6L427,274c-9.6,0-18.8-14.7-38-13.2l-0.9-2.6c-1.1-3.2-4-5.3-7.3-5.3h-10.6
			v-5.7h4.1c3.5,0,6.3-2.8,6.3-6.3v-8.2c0-3.5-2.8-6.3-6.3-6.3h-58.3l-92.9,41.2c14,8.4,23.4,23.7,23.4,41.2
			C246.5,310.8,246.4,312.8,246.1,314.9z"/>
		<path d="M615.4,314.9c-0.1,0.4-0.1,0.7-0.2,1.1h11.1v19.3c0,2.3,1.8,4.2,4.2,4.2h57.3c2.3,0,4.2-1.8,4.2-4.2v-12.5
			c0-2.3-1.8-4.2-4.2-4.2h-22.9c0-14,29.7-7.3,29.7-14c-23.2-12.8-55.5-20.4-88.7-25.1c6.3,8.1,10.1,18.4,10.1,29.4
			C615.8,310.8,615.7,312.8,615.4,314.9z"/>
		<path d="M127.6,229v81.7H150c0-0.6-0.1-1.3-0.1-1.9c0-25.8,20.4-46.9,45.9-48.2l10.6-10.6c2-2,3-4.6,3-7.4V229
			c0-5.7-4.7-10.4-10.4-10.4H138C132.2,218.6,127.6,223.3,127.6,229z"/>
		<path d="M157,308.9c0,1.1,0.1,2.3,0.1,3.3c1.7,20.2,18.6,36.1,39.3,36.1c20.1,0,36.6-15,39-34.4c0.2-1.6,0.4-3.3,0.4-5
			c0-21.8-17.6-39.4-39.4-39.4C174.8,269.4,157,287.1,157,308.9z M221,305.5h-11.3c-0.3-1.2-0.8-2.4-1.4-3.5l8-8
			C218.8,297.4,220.4,301.3,221,305.5z M216.2,323.9l-8.1-8.1c0.6-1.1,1.1-2.2,1.4-3.4H221C220.4,316.6,218.7,320.5,216.2,323.9z
			 M199.9,333.4V322c1.2-0.3,2.3-0.8,3.4-1.3l8,8C208.1,331.1,204.2,332.8,199.9,333.4L199.9,333.4z M199.9,295.8L199.9,295.8v-11.3
			c4.3,0.6,8.2,2.3,11.5,4.7l-8,8C202.3,296.6,201.1,296.1,199.9,295.8L199.9,295.8z M193.1,284.5v11.3c-1.2,0.4-2.4,0.9-3.5,1.5
			l-8-8C184.9,286.7,188.8,285,193.1,284.5L193.1,284.5z M181.6,328.6l8-8c1.1,0.6,2.2,1.1,3.5,1.4v11.3
			C188.8,332.8,184.9,331.1,181.6,328.6z M172.1,312.4h11.3c0.4,1.2,0.9,2.3,1.5,3.4l-8.1,8.1C174.3,320.6,172.6,316.6,172.1,312.4z
			 M183.4,305.5h-11.3c0.6-4.3,2.2-8.2,4.7-11.6l8,8C184.2,303.2,183.7,304.3,183.4,305.5L183.4,305.5z"/>
	</g>
</g>
</svg>
