<?xml version="1.0" encoding="utf-8"?>
<!-- Generator: Adobe Illustrator 18.0.0, SVG Export Plug-In . SVG Version: 6.00 Build 0)  -->
<!DOCTYPE svg PUBLIC "-//W3C//DTD SVG 1.1//EN" "http://www.w3.org/Graphics/SVG/1.1/DTD/svg11.dtd">
<svg version="1.1" id="Capa_1" xmlns="http://www.w3.org/2000/svg" xmlns:xlink="http://www.w3.org/1999/xlink" x="0px" y="0px"
	 viewBox="127.6 198.5 566.9 170.1" enable-background="new 127.6 198.5 566.9 170.1" xml:space="preserve">
<g>
	<g>
		<path d="M555,326c0,1.2,0.1,2.4,0.2,3.6c1.8,21.8,20.1,38.9,42.4,38.9c21.7,0,39.5-16.2,42.2-37.2c0.2-1.8,0.4-3.5,0.4-5.4
			c0-23.5-19.1-42.5-42.6-42.5C574,283.5,555,302.5,555,326z M623.9,322.4h-12.3c-0.4-1.3-0.9-2.6-1.6-3.8l8.7-8.6
			C621.5,313.6,623.3,317.8,623.9,322.4z M618.8,342.1l-8.7-8.7c0.7-1.1,1.2-2.4,1.6-3.7H624C623.3,334.4,621.5,338.6,618.8,342.1z
			 M601.2,340.2c1.3-0.4,2.6-0.9,3.7-1.5l8.6,8.6c-3.5,2.7-7.7,4.5-12.3,5.1V340.2z M601.2,299.6c4.7,0.6,8.9,2.4,12.5,5.2l-8.6,8.6
			c-1.2-0.7-2.4-1.2-3.8-1.6L601.2,299.6L601.2,299.6z M593.8,311.9c-1.3,0.4-2.6,0.9-3.8,1.6l-8.6-8.6c3.5-2.7,7.8-4.5,12.4-5.2
			V311.9z M581.5,347.4l8.6-8.6c1.1,0.6,2.4,1.1,3.7,1.5v12.3C589.2,351.9,585,350,581.5,347.4z M571.1,329.8h12.3
			c0.4,1.3,0.9,2.6,1.6,3.7l-8.7,8.7C573.5,338.7,571.7,334.4,571.1,329.8z M583.3,322.4H571c0.6-4.7,2.4-8.9,5.1-12.4l8.7,8.6
			C584.2,319.8,583.7,321.1,583.3,322.4L583.3,322.4z"/>
		<path d="M203.7,326.2c0,1.2,0.1,2.4,0.2,3.6c1.8,21.7,20,38.8,42.2,38.8c21.6,0,39.4-16.2,42-37.1c0.2-1.8,0.4-3.5,0.4-5.3
			c0-23.4-19-42.4-42.4-42.4S203.7,302.8,203.7,326.2z M272.3,322.7h-12.2c-0.4-1.3-0.9-2.6-1.6-3.8l8.6-8.6
			C269.9,313.8,271.7,318,272.3,322.7z M267.2,342.3l-8.6-8.6c0.7-1.1,1.2-2.3,1.6-3.7h12.3C271.7,334.6,269.9,338.7,267.2,342.3z
			 M249.7,352.6v-12.3c1.3-0.4,2.6-0.9,3.7-1.5l8.6,8.6C258.4,350.1,254.3,351.9,249.7,352.6L249.7,352.6z M249.7,299.9
			c4.6,0.6,8.9,2.4,12.4,5.1l-8.6,8.6c-1.1-0.7-2.4-1.2-3.8-1.6V299.9z M242.4,312.1c-1.3,0.4-2.6,0.9-3.8,1.6L230,305
			c3.5-2.7,7.7-4.5,12.4-5.1V312.1z M230.1,347.5l8.6-8.6c1.1,0.6,2.3,1.1,3.7,1.5v12.3C237.8,351.9,233.6,350.1,230.1,347.5z
			 M219.8,330h12.2c0.4,1.3,0.9,2.6,1.6,3.7l-8.7,8.7C222.2,338.8,220.4,334.6,219.8,330z M219.8,322.7c0.6-4.6,2.4-8.9,5.1-12.4
			l8.6,8.6c-0.7,1.1-1.2,2.4-1.6,3.8H219.8z"/>
		<path d="M127.6,303.5c-0.1,5.5,1.2,10.8,4,15.6l4,6.9c3.5,6,9.6,10.1,16.5,11.1l39.8,5.2l5.8,0.4c-1.3-3.8-2.2-7.9-2.6-12
			c-0.1-1.4-0.2-2.9-0.2-4.3c0-28.3,23-51.2,51.2-51.2s51.2,23,51.2,51.2c0,2-0.1,4.1-0.4,6.4c-0.7,5.5-2.3,10.7-4.6,15.5l2.1,0.1
			h257c-2.7-5.5-4.4-11.6-5-17.9c-0.1-1.4-0.2-2.9-0.2-4.4c0-28.3,23-51.4,51.4-51.4s51.4,23,51.4,51.4c0,2.1-0.1,4.2-0.4,6.4
			c-0.7,5.6-2.3,10.8-4.7,15.7l37-4c5.7-0.6,10.3-4.9,11.5-10.5c0.7-3.5,1.4-7.9,1.9-12.9c2.5-24.7-12.3-48-35.7-56.4
			c-59.5-21.2-142.9-19.1-142.9-19.1s-51.4-26.1-69.3-32.7c-87.6-32.5-190.9-2.7-246.8,27c-16,0.6-32.7,1.8-42.6,2.7
			c-5.3,0.4-9.9,3.9-11.8,8.9l-10,26.4l-2.3,3.4c-3.1,4.7-4.9,10.1-5,15.7L127.6,303.5z M258.5,233.4c35.2-18.3,61.1-19.8,82.3-22
			c77-8,126.8,24.1,126.8,24.1c-5.1,5.6-4,10.2-4,10.2H268.7L258.5,233.4z"/>
	</g>
</g>
</svg>
