<?xml version="1.0" encoding="utf-8"?>
<!-- Generator: Adobe Illustrator 18.0.0, SVG Export Plug-In . SVG Version: 6.00 Build 0)  -->
<!DOCTYPE svg PUBLIC "-//W3C//DTD SVG 1.1//EN" "http://www.w3.org/Graphics/SVG/1.1/DTD/svg11.dtd">
<svg version="1.1" id="Capa_1" xmlns="http://www.w3.org/2000/svg" xmlns:xlink="http://www.w3.org/1999/xlink" x="0px" y="0px"
	 viewBox="127.6 188.9 566.9 189.1" enable-background="new 127.6 188.9 566.9 189.1" xml:space="preserve">
<g>
	<g>
		<path d="M547.8,332.9c0,1.3,0.1,2.6,0.2,3.8c2,23.1,21.3,41.2,44.9,41.2c23,0,42-17.2,44.7-39.5c0.2-1.8,0.4-3.8,0.4-5.7
			c0-24.9-20.2-45.1-45.1-45.1C568,287.9,547.8,308.1,547.8,332.9z M620.9,329.1h-13c-0.4-1.4-0.9-2.8-1.6-4l9.2-9.2
			C618.4,319.7,620.2,324.2,620.9,329.1z M615.5,350.1l-9.2-9.2c0.7-1.2,1.3-2.6,1.6-3.9h13C620.3,341.9,618.3,346.3,615.5,350.1z
			 M596.8,348c1.4-0.4,2.7-0.9,3.9-1.6l9.1,9.1c-3.8,2.8-8.2,4.7-13.1,5.4L596.8,348L596.8,348z M596.8,318v-13
			c4.9,0.7,9.4,2.6,13.2,5.5l-9.2,9.2C599.5,318.9,598.3,318.3,596.8,318L596.8,318z M589,304.9v13c-1.4,0.4-2.8,0.9-4,1.6l-9.2-9.2
			C579.6,307.6,584.1,305.6,589,304.9L589,304.9z M575.9,355.5l9.1-9.2c1.2,0.7,2.6,1.2,3.9,1.6v13
			C584.1,360.3,579.6,358.4,575.9,355.5z M564.9,336.9h13c0.4,1.4,1,2.7,1.7,3.9l-9.3,9.2C567.4,346.3,565.6,341.9,564.9,336.9z
			 M577.8,329.1h-13c0.7-5,2.6-9.4,5.4-13.2l9.2,9.2C578.8,326.4,578.2,327.7,577.8,329.1L577.8,329.1z"/>
		<path d="M222.5,332.9c0,1.3,0.1,2.6,0.2,3.8c2,23.1,21.3,41.2,44.9,41.2c23,0,42-17.2,44.7-39.5c0.2-1.8,0.4-3.8,0.4-5.7
			c0-24.9-20.2-45.1-45.1-45.1C242.7,287.9,222.5,308.1,222.5,332.9z M295.7,329.1h-13c-0.4-1.4-0.9-2.8-1.6-4l9.2-9.2
			C293.1,319.7,294.9,324.2,295.7,329.1z M290.2,350.1l-9.2-9.2c0.7-1.2,1.3-2.6,1.6-3.9h13C295,341.9,293,346.3,290.2,350.1z
			 M271.6,348c1.4-0.4,2.7-0.9,3.9-1.6l9.1,9.1c-3.8,2.8-8.2,4.7-13.1,5.4L271.6,348L271.6,348z M271.6,318v-13
			c5,0.7,9.4,2.6,13.2,5.5l-9.2,9.2C274.3,318.9,273,318.3,271.6,318L271.6,318z M263.8,304.9v13c-1.4,0.4-2.8,0.9-4,1.6l-9.2-9.2
			C254.3,307.6,258.8,305.6,263.8,304.9L263.8,304.9z M250.7,355.5l9.1-9.2c1.2,0.7,2.6,1.2,3.9,1.6v13
			C258.9,360.3,254.4,358.4,250.7,355.5z M239.7,336.9h13c0.4,1.4,1,2.7,1.7,3.9l-9.3,9.2C242.2,346.3,240.3,341.9,239.7,336.9z
			 M252.6,329.1h-13c0.6-5,2.6-9.4,5.4-13.2l9.2,9.2C253.5,326.4,252.9,327.7,252.6,329.1L252.6,329.1z"/>
		<path d="M127.6,308v9.7c0,4,3.3,7.4,7.4,7.4h26.6l24.9,13.7h27.4c0-0.4-0.1-0.8-0.1-1.1c-0.1-1.6-0.2-3-0.2-4.6
			c0-29.8,24.2-54.1,54.1-54.1c29.8,0,54.1,24.2,54.1,54.1c0,1.8-0.1,3.8-0.4,5.7h217.8c-0.1-0.4-0.1-0.8-0.1-1.1
			c-0.1-1.6-0.2-3-0.2-4.6c0-29.8,24.2-54.1,54.1-54.1s54.1,24.2,54.1,54.1c0,1.7-0.1,3.5-0.4,5.3l32.7-7.2
			c5.8-1.3,10.4-5.8,11.7-11.6l3-13.5c1.9-8.6-1.8-17.6-9.4-22.2l-9.9-12.5c-8.3-10.5-20.5-17.2-33.8-18.6l-96-10.1l-50.2-48.1
			c-3.8-3.6-8.8-5.6-14-5.6H331.5c-8.3,0-15.2,6.3-15.8,14.5l-3.3,39.3l-16.3-0.1v-44.6c0-4.1-3.3-7.5-7.5-7.5h-5.9
			c-4.1,0-7.5,3.3-7.5,7.5v44.4l-123-1.1c-3.3,0-6,2.6-6.2,5.9l-2.3,53.5h-8.9C130.9,300.6,127.6,303.9,127.6,308z M505.7,245.6H422
			v-43.2h59.2c1.8,0,3.5,0.9,4.6,2.2l19.8,24.5C502.5,237.8,505.7,245.6,505.7,245.6L505.7,245.6z M338.8,245.6l1.6-37.6
			c0.1-3.2,2.8-5.7,6-5.7h53.8v43.2H338.8z"/>
	</g>
</g>
</svg>
