<?xml version="1.0" encoding="utf-8"?>
<!-- Generator: Adobe Illustrator 18.0.0, SVG Export Plug-In . SVG Version: 6.00 Build 0)  -->
<!DOCTYPE svg PUBLIC "-//W3C//DTD SVG 1.1//EN" "http://www.w3.org/Graphics/SVG/1.1/DTD/svg11.dtd">
<svg version="1.1" id="Capa_1" xmlns="http://www.w3.org/2000/svg" xmlns:xlink="http://www.w3.org/1999/xlink" x="0px" y="0px"
	 viewBox="128.4 172.3 566.1 222.1" enable-background="new 128.4 172.3 566.1 222.1" xml:space="preserve">
<g>
	<g>
		<path d="M542.5,351.4c0,1.3,0.1,2.5,0.2,3.7c1.8,22.1,20.3,39.4,42.9,39.4c22,0,40-16.4,42.7-37.7c0.2-1.8,0.4-3.5,0.4-5.5
			c0-23.8-19.3-43.1-43.1-43.1C561.8,308.3,542.5,327.5,542.5,351.4z M612.4,347.7H600c-0.4-1.3-0.9-2.6-1.6-3.8l8.8-8.8
			C609.9,338.7,611.7,343,612.4,347.7z M607.2,367.7l-8.8-8.8c0.7-1.1,1.2-2.4,1.6-3.8h12.5C611.7,359.9,609.9,364.1,607.2,367.7z
			 M589.3,365.7c1.3-0.4,2.6-0.9,3.8-1.5l8.8,8.8c-3.6,2.7-7.9,4.5-12.5,5.2L589.3,365.7L589.3,365.7z M589.3,324.6
			c4.7,0.6,9,2.5,12.6,5.2l-8.8,8.8c-1.2-0.7-2.5-1.2-3.8-1.6V324.6z M581.9,337c-1.3,0.4-2.6,0.9-3.8,1.6l-8.8-8.8
			c3.6-2.8,7.9-4.5,12.6-5.2L581.9,337L581.9,337z M569.3,373l8.8-8.8c1.1,0.7,2.4,1.2,3.8,1.6v12.5
			C577.2,377.5,573,375.7,569.3,373z M558.9,355.2h12.4c0.4,1.3,0.9,2.6,1.6,3.8l-8.9,8.9C561.3,364.2,559.6,359.9,558.9,355.2z
			 M558.9,347.7c0.6-4.7,2.4-9,5.2-12.6l8.8,8.8c-0.7,1.2-1.2,2.5-1.6,3.8L558.9,347.7L558.9,347.7z"/>
		<path d="M172.7,351.4c0,1.3,0.1,2.5,0.1,3.7c1.8,22.1,20.3,39.4,42.9,39.4c22,0,40-16.4,42.7-37.7c0.2-1.8,0.4-3.5,0.4-5.5
			c0-23.8-19.3-43.1-43.1-43.1C192,308.3,172.7,327.5,172.7,351.4z M242.6,347.7h-12.4c-0.4-1.3-0.9-2.6-1.6-3.8l8.8-8.8
			C240.1,338.7,241.9,343,242.6,347.7z M237.3,367.7l-8.8-8.8c0.7-1.1,1.2-2.4,1.6-3.8h12.5C241.9,359.9,240.1,364.1,237.3,367.7z
			 M219.5,365.7c1.3-0.4,2.6-0.9,3.8-1.5l8.8,8.8c-3.6,2.7-7.9,4.5-12.5,5.2L219.5,365.7L219.5,365.7z M219.5,337v-12.4
			c4.7,0.6,9,2.5,12.6,5.2l-8.8,8.8C222.2,337.9,220.9,337.4,219.5,337L219.5,337z M212,337c-1.3,0.4-2.6,0.9-3.8,1.6l-8.8-8.8
			c3.6-2.8,7.9-4.5,12.6-5.2V337z M199.6,373l8.8-8.8c1.1,0.7,2.4,1.2,3.8,1.6v12.5C207.4,377.5,203.2,375.7,199.6,373z
			 M189.1,355.2h12.4c0.4,1.3,0.9,2.6,1.6,3.8l-8.9,8.8C191.5,364.2,189.7,359.9,189.1,355.2z M189.1,347.7c0.6-4.7,2.4-9,5.2-12.6
			l8.8,8.8c-0.7,1.2-1.2,2.5-1.6,3.8L189.1,347.7L189.1,347.7z"/>
		<path d="M127.6,333c-0.4,9.9,6.5,18.5,16.2,20.5l23.4,4.7c-0.1-0.9-0.3-1.8-0.4-2.7c-0.1-1.3-0.2-2.8-0.2-4.2
			c0-27.1,22.1-49.3,49.3-49.3s49.3,22.1,49.3,49.3c0,2.1-0.1,4.2-0.4,6.2c-0.2,1.6-0.5,3.1-0.9,4.6l271.2,7.4l4.8-0.3
			c-1.7-4.3-2.8-8.9-3.3-13.7c-0.1-1.3-0.2-2.8-0.2-4.2c0-27.1,22.1-49.3,49.3-49.3c27.1,0,49.3,22.1,49.3,49.3
			c0,2.1-0.1,4.2-0.4,6.2c-0.3,2.3-0.8,4.6-1.4,6.8l40.8-6.4c8.4-1.3,15.4-7.6,17.5-15.9c2-7.6,3.7-16.7,3-22.6
			c-1.4-11.6-9.1-16.1-9.1-16.1c-17.9-42.9-112-57.5-112-57.5s-85.5-56.2-119.3-65.3c-50.1-13.5-209.1-6.9-261-4.3
			c-10.3,0.5-19.6,6.2-24.7,15.2l-31,54.6c-4.7,8.4-7.3,17.7-7.7,27.3L127.6,333z M375,186.2v66.4l-95.6-3.9l6.2-62.2
			C315.1,185.8,347.1,185.5,375,186.2z M520.2,249v-15.9c7.6,5.1,14.4,10,19.9,14c2.1,1.5,2.9,4.3,2.1,6.7c-0.9,2.4-3.2,4-5.8,3.8
			l-9.4-0.5C527,257,524.8,252.9,520.2,249z M483.9,257l-82.1-3.3v-66.5c19.4,1.1,35,2.8,43.5,5.6c18.8,6.1,40.7,18.2,60,30.5v19.5
			c-0.6-0.1-1.1-0.2-1.6-0.2C486.7,241.9,483.9,257,483.9,257z M171,220.3l11.7-22.3c2.6-4.8,7.5-8,13-8.3
			c11.8-0.6,35.1-1.7,63.1-2.6l-6,60.4l-67.5-2.8c-5.7-0.2-11-3.4-13.8-8.4C168.4,231.4,168.3,225.4,171,220.3z"/>
	</g>
</g>
</svg>
