<?xml version="1.0" encoding="utf-8"?>
<!-- Generator: Adobe Illustrator 18.0.0, SVG Export Plug-In . SVG Version: 6.00 Build 0)  -->
<!DOCTYPE svg PUBLIC "-//W3C//DTD SVG 1.1//EN" "http://www.w3.org/Graphics/SVG/1.1/DTD/svg11.dtd">
<svg version="1.1" id="Capa_1" xmlns="http://www.w3.org/2000/svg" xmlns:xlink="http://www.w3.org/1999/xlink" x="0px" y="0px"
	 viewBox="128.5 169.2 565.9 228.6" enable-background="new 128.5 169.2 565.9 228.6" xml:space="preserve">
<g>
	<g>
		<path d="M205,295.5c-28.3,0-51.1,22.9-51.1,51.1c0,1.5,0.1,2.9,0.2,4.4c2.2,26.1,24.2,46.8,50.9,46.8c26.1,0,47.5-19.5,50.7-44.7
			c0.3-2.1,0.4-4.3,0.4-6.4C256.2,318.4,233.3,295.5,205,295.5z M179.4,327.3l10.4,10.4c-0.8,1.4-1.4,2.9-1.8,4.5h-14.7
			C174,336.7,176.2,331.7,179.4,327.3z M173.3,351.1H188c0.4,1.6,1.1,3,1.9,4.4L179.4,366C176.2,361.8,174.1,356.7,173.3,351.1z
			 M200.6,378.4c-5.5-0.8-10.6-2.9-14.8-6.2l10.4-10.4c1.3,0.8,2.8,1.4,4.5,1.8L200.6,378.4L200.6,378.4z M200.6,314.9v14.7
			c-1.6,0.4-3.1,1.1-4.5,1.9l-10.4-10.5C189.9,317.8,195,315.7,200.6,314.9L200.6,314.9z M236.8,342.3h-14.7
			c-0.4-1.6-1.1-3.1-1.8-4.5l10.4-10.4C233.9,331.7,236,336.7,236.8,342.3z M209.5,329.6v-14.7c5.6,0.8,10.6,2.9,15,6.2L214,331.5
			C212.6,330.7,211,330,209.5,329.6L209.5,329.6z M209.5,378.4v-14.7c1.6-0.4,3-1,4.5-1.8l10.4,10.4
			C220,375.4,215,377.6,209.5,378.4z M230.6,366l-10.4-10.4c0.8-1.3,1.4-2.8,1.8-4.5h14.8C236.1,356.7,233.9,361.8,230.6,366z"/>
		<path d="M583.5,295.5c-28.3,0-51.1,22.9-51.1,51.1c0,1.5,0.1,2.9,0.2,4.4c2.2,26.1,24.2,46.8,50.9,46.8c26,0,47.5-19.5,50.7-44.7
			c0.3-2.1,0.4-4.3,0.4-6.4C634.6,318.4,611.7,295.5,583.5,295.5z M557.9,327.3l10.4,10.4c-0.8,1.4-1.4,2.9-1.8,4.5h-14.7
			C552.5,336.7,554.7,331.7,557.9,327.3z M551.8,351.1h14.7c0.4,1.6,1.1,3,1.9,4.4L557.9,366C554.7,361.8,552.6,356.7,551.8,351.1z
			 M579,378.4c-5.5-0.8-10.6-2.9-14.8-6.2l10.4-10.4c1.3,0.8,2.8,1.4,4.5,1.8L579,378.4L579,378.4z M579,314.9v14.7
			c-1.6,0.4-3.1,1.1-4.5,1.9l-10.4-10.4C568.4,317.8,573.5,315.7,579,314.9L579,314.9z M615.3,342.3h-14.7c-0.4-1.6-1.1-3.1-1.8-4.5
			l10.4-10.4C612.4,331.7,614.5,336.7,615.3,342.3z M587.9,329.6v-14.7c5.6,0.8,10.6,2.9,15,6.2l-10.4,10.5
			C591,330.7,589.5,330,587.9,329.6L587.9,329.6z M587.9,378.4v-14.7c1.6-0.4,3-1,4.5-1.8l10.4,10.4
			C598.5,375.4,593.5,377.6,587.9,378.4z M609.1,366l-10.4-10.4c0.8-1.3,1.4-2.8,1.8-4.5h14.8C614.5,356.7,612.3,361.8,609.1,366z"
			/>
		<path d="M686.4,303.7c0,0-0.1-8.6-1.1-16.5c-0.8-6-3.9-11.5-8.7-15.2c-35.8-27.3-94.8-32.1-127.6-33.4c-6.6-0.3-26.4-0.4-26.4-0.4
			l-50.2-49.1h1c1.8,0,3.3-1.2,3.8-2.9c0.4-1.7-0.4-3.5-1.9-4.4c-15.5-9.3-25.8-12-43.7-12.3c-26.9-0.4-140.5-0.2-189.9-0.1
			c-17.4,0.1-27.6,3.7-40.6,15.4c-28.3,25.6-47.2,51.2-49.6,55.8c-11.4,21.9-10.6,43.2-10.6,43.2s-8.9,5.9-12.4,20.3
			c-4.5,18.6,8.3,59.4,8.3,59.4h7.4c-1.1-3.7-1.8-7.5-2.1-11.5c-0.1-1.8-0.3-3.6-0.3-5.4c0-34.8,28.3-63.1,63.1-63.1
			s63.1,28.3,63.1,63.1c0,2.5-0.2,5.1-0.6,7.9c-0.4,3-1.1,6-1.8,8.9h256.9c-1.1-3.7-1.8-7.5-2.1-11.4c-0.1-1.8-0.3-3.5-0.3-5.4
			c0-34.8,28.3-63.1,63.1-63.1c34.8,0,63.1,28.3,63.1,63.1c0,2.5-0.2,5.1-0.6,7.9c-0.4,3-1.1,6-1.8,8.9h29.3
			c7.2,0,13.5-5.2,14.7-12.3l5.8-31.5C695.4,313.2,692.3,306.7,686.4,303.7z M282.4,189.1v45.7l-91.2-1.3c-2.3,0-4.5-1.4-5.5-3.5
			c-1.1-2.1-0.8-4.6,0.6-6.5c7.1-9.2,16.6-19.6,28.7-29.1c4.5-3.5,9.9-5.3,15.5-5.3H282.4L282.4,189.1z M310,235.2l-3.5-0.1v-46.1
			h3.5V235.2z M478.6,237.5c0.1-0.7,0.2-1.4,0.2-2.1c0-8-5.7-14.5-12.8-14.5c-7,0-12.8,6.4-12.8,14.5c0,0.6,0.1,1.2,0.1,1.8
			l-119.3-1.7v-46.4h112.5l49.7,48.7L478.6,237.5z"/>
	</g>
</g>
</svg>
