<?xml version="1.0" encoding="utf-8"?>
<!-- Generator: Adobe Illustrator 18.0.0, SVG Export Plug-In . SVG Version: 6.00 Build 0)  -->
<!DOCTYPE svg PUBLIC "-//W3C//DTD SVG 1.1//EN" "http://www.w3.org/Graphics/SVG/1.1/DTD/svg11.dtd">
<svg version="1.1" id="Capa_1" xmlns="http://www.w3.org/2000/svg" xmlns:xlink="http://www.w3.org/1999/xlink" x="0px" y="0px"
	 viewBox="127.5 157.2 567 252.5" enable-background="new 127.5 157.2 567 252.5" xml:space="preserve">
<g>
	<g>
		<path d="M192.5,312.8c-26.8,0-48.5,21.7-48.5,48.5c0,1.4,0.1,2.8,0.2,4.1c2.1,24.8,22.9,44.3,48.3,44.3c24.7,0,45-18.5,48-42.4
			c0.3-2,0.4-4,0.4-6.1C240.9,334.5,219.3,312.8,192.5,312.8z M168.2,343l9.9,9.9c-0.8,1.3-1.3,2.8-1.8,4.3h-14
			C163.2,351.9,165.2,347.1,168.2,343z M162.5,365.5h13.9c0.4,1.5,1,2.9,1.8,4.2l-9.9,9.9C165.2,375.7,163.2,370.8,162.5,365.5z
			 M188.3,377.4v14c-5.2-0.7-10-2.8-14-5.8l9.9-9.9C185.5,376.4,186.8,377,188.3,377.4L188.3,377.4z M188.3,331.2v14
			c-1.6,0.4-3,1-4.3,1.8l-9.9-9.9C178.2,334,183,331.9,188.3,331.2L188.3,331.2z M222.6,357.2h-13.9c-0.4-1.5-1-3-1.8-4.3l9.9-9.9
			C219.8,347.1,221.9,351.9,222.6,357.2z M196.7,345.2v-14c5.2,0.7,10.1,2.8,14.2,5.9L201,347C199.7,346.2,198.2,345.5,196.7,345.2
			L196.7,345.2z M196.7,391.4v-14c1.5-0.4,2.9-0.9,4.2-1.7l9.9,9.9C206.7,388.6,202,390.6,196.7,391.4z M216.8,379.6l-9.9-9.9
			c0.8-1.3,1.3-2.7,1.8-4.2h14C221.9,370.8,219.8,375.6,216.8,379.6z"/>
		<path d="M593.1,312.8c-26.8,0-48.5,21.7-48.5,48.5c0,1.4,0.1,2.8,0.2,4.1c2.1,24.8,22.9,44.3,48.3,44.3c24.7,0,45-18.5,48-42.4
			c0.3-2,0.4-4,0.4-6.1C641.6,334.5,619.9,312.8,593.1,312.8z M568.8,343l9.9,9.9c-0.8,1.3-1.3,2.8-1.8,4.3h-14
			C563.7,351.9,565.8,347.1,568.8,343z M563,365.5h13.9c0.4,1.5,1,2.9,1.8,4.2l-9.9,9.9C565.8,375.7,563.8,370.8,563,365.5z
			 M588.9,377.4v14c-5.2-0.7-10-2.8-14-5.8l9.9-9.9C586,376.4,587.4,377,588.9,377.4L588.9,377.4z M588.9,331.2v14
			c-1.6,0.4-3,1-4.3,1.8l-9.9-9.9C578.8,334,583.6,331.9,588.9,331.2L588.9,331.2z M623.2,357.2h-14c-0.4-1.5-1-3-1.8-4.3l9.9-9.9
			C620.4,347.1,622.4,351.9,623.2,357.2z M597.3,331.2c5.3,0.7,10.1,2.8,14.2,5.9l-9.9,9.9c-1.3-0.8-2.8-1.4-4.3-1.8L597.3,331.2
			L597.3,331.2z M597.3,391.4v-14c1.5-0.4,2.9-0.9,4.2-1.7l9.9,9.9C607.3,388.6,602.5,390.6,597.3,391.4z M617.3,379.6l-9.9-9.9
			c0.8-1.3,1.3-2.7,1.8-4.2h14C622.5,370.8,620.4,375.6,617.3,379.6z"/>
		<path d="M687.1,311.4c-6.2-15-22.1-34.8-47-43.8c-21.5-7.8-34.2-10.5-65.4-27.8c-26.4-14.6-113.4-59.9-138.8-67.6
			c-42.7-13-91.4-17.6-162.4-13.5c-50.4,2.9-62.4,10.1-78.9,20.6c-22.8,14.5-45.4,57.3-47.8,70.3c-2.4,13,1.6,20.5,0.6,29.6
			c-1,9.1-17.3,27.4-19.7,46.1c-1.3,9.9,2,19.9,5.3,27.3c4.2-29.1,29.2-51.4,59.4-51.4c33.1,0,60.1,26.9,60.1,60
			c0,1.3-0.1,2.8-0.2,4.3l281.3,4.4c-0.1-1.2-0.4-2.3-0.5-3.5c-0.1-1.7-0.2-3.4-0.2-5.1c0-33.1,26.9-60,60.1-60
			c33.1,0,60,26.9,60,60c0,2.3-0.1,4.8-0.5,7.6c-0.1,1-0.4,2-0.5,3l38.8,0.6C698,345,693.4,326.4,687.1,311.4z M234,229.7
			c-13.5-6-24.8-26.5-22.6-35.1c3.8-14.5,46.6-17.7,87.9-18.4l-7.4,63.3C260.6,236.1,244.5,234.4,234,229.7z M491.7,255.2
			c0,0-85.7-5.3-158.4-11.8l-7.9-67.5c3.3,0,6.6,0,9.8,0c69.2,0,97.8,10.3,153.6,40.3l4.7,13.8C493.4,230.1,484.7,241,491.7,255.2z"
			/>
	</g>
</g>
</svg>
