<?xml version="1.0" encoding="utf-8"?>
<!-- Generator: Adobe Illustrator 18.0.0, SVG Export Plug-In . SVG Version: 6.00 Build 0)  -->
<!DOCTYPE svg PUBLIC "-//W3C//DTD SVG 1.1//EN" "http://www.w3.org/Graphics/SVG/1.1/DTD/svg11.dtd">
<svg version="1.1" id="Capa_1" xmlns="http://www.w3.org/2000/svg" xmlns:xlink="http://www.w3.org/1999/xlink" x="0px" y="0px"
	 viewBox="130 149.9 564.5 267.2" enable-background="new 130 149.9 564.5 267.2" xml:space="preserve">
<g>
	<g>
		<path d="M547.8,356.6c0,1.8,0.1,3.5,0.3,5.2c2.6,31,28.6,55.3,60.2,55.3c30.8,0,56.1-23,59.9-52.8c0.4-2.5,0.6-5,0.6-7.6
			c0-33.4-27.1-60.4-60.4-60.4S547.8,323.2,547.8,356.6z M636.4,352.8h-13c-0.4-1.4-0.9-2.8-1.6-4l9.3-9.3
			C633.8,343.3,635.7,347.8,636.4,352.8z M630.9,373.8l-9.3-9.3c0.7-1.2,1.3-2.6,1.6-4h13.2C635.7,365.5,633.8,370.1,630.9,373.8z
			 M612.1,384.8v-13.1c1.4-0.4,2.7-0.9,4-1.6l9.2,9.2C621.5,382.2,617,384.1,612.1,384.8L612.1,384.8z M612.1,328.5
			c5,0.7,9.4,2.6,13.3,5.5l-9.2,9.3c-1.3-0.7-2.6-1.3-4-1.7V328.5z M604.3,328.5v13c-1.4,0.4-2.8,0.9-4,1.7L591,334
			C594.9,331.1,599.3,329.2,604.3,328.5L604.3,328.5z M591.1,379.3l9.2-9.2c1.2,0.7,2.6,1.3,4,1.6v13
			C599.4,384.1,594.9,382.2,591.1,379.3z M580,360.6h13c0.4,1.4,0.9,2.7,1.7,3.9l-9.3,9.3C582.6,370.1,580.7,365.5,580,360.6z
			 M580,352.8c0.7-5,2.6-9.4,5.5-13.3l9.3,9.3c-0.7,1.2-1.3,2.6-1.6,4H580z"/>
		<path d="M174.7,356.6c0,1.8,0.1,3.5,0.3,5.2c2.6,31,28.6,55.3,60.2,55.3c30.8,0,56.1-23,59.9-52.8c0.4-2.5,0.6-5,0.6-7.6
			c0-33.4-27.1-60.4-60.4-60.4S174.7,323.2,174.7,356.6z M263.3,352.8h-13c-0.4-1.4-0.9-2.8-1.6-4l9.3-9.3
			C260.7,343.3,262.6,347.8,263.3,352.8z M257.8,373.8l-9.3-9.3c0.7-1.2,1.3-2.6,1.6-4h13.2C262.6,365.5,260.7,370.1,257.8,373.8z
			 M239,384.8v-13.1c1.4-0.4,2.7-0.9,4-1.6l9.2,9.2C248.5,382.2,244,384.1,239,384.8L239,384.8z M239,341.5v-13
			c5,0.7,9.4,2.6,13.3,5.5l-9.2,9.3C241.8,342.5,240.4,341.9,239,341.5L239,341.5z M231.2,328.5v13c-1.4,0.4-2.8,0.9-4,1.7l-9.2-9.2
			C221.7,331.1,226.2,329.2,231.2,328.5L231.2,328.5z M218,379.3l9.2-9.2c1.2,0.7,2.6,1.3,4,1.6v13
			C226.3,384.1,221.8,382.2,218,379.3z M207,360.6h13c0.4,1.4,1,2.7,1.7,3.9l-9.3,9.3C209.6,370.1,207.7,365.5,207,360.6z
			 M206.9,352.8c0.6-5,2.6-9.4,5.4-13.3l9.3,9.3c-0.7,1.2-1.3,2.6-1.6,4H206.9z"/>
		<path d="M251.2,158.6c-0.1,4.9,3.8,8.9,8.7,8.9l162.1,2.1c0.1,0,0.1,0,0.2,0c4.7-0.1,8.6-3.9,8.7-8.7c0.1-4.9-3.8-8.9-8.7-8.9
			l-162.1-2.1C255.4,149.7,251.3,153.7,251.2,158.6z"/>
		<path d="M315.5,363.8c0,4.9,4,8.8,8.8,8.8h191.4c4.9,0,8.8-4,8.8-8.8c0-4.9-4-8.8-8.8-8.8H324.3
			C319.4,355,315.5,358.9,315.5,363.8z"/>
		<path d="M127.8,313.7l3,15.2c2.3,11.4,12.3,19.6,23.8,19.6h11.1l30.8-52.9c2.1-3.5,5.9-5.7,10-5.7h58.4c4.1,0,7.9,2.1,9.9,5.7
			l31.4,52.9h223.5l42.8-56.2c2.2-2.9,5.6-4.5,9.2-4.5h63.6c4.9,0,9.2,3,10.8,7.7l18.2,50.2h7.1c7.3,0,13.2-5.9,13.2-13.2v-19.6
			c0-5.9-4.7-10.6-10.6-10.6h-10.3v-10.8c1.8,0,3.5-1,4.3-2.6c0.9-1.6,0.7-3.5-0.4-5c0,0-5.5-9.6-8.4-11.8
			c-3.2-2.6-15.2-6.9-15.2-6.9l-7-10.3c-3.8-5.6-10-9.1-16.7-9.6L506,237.5l-37.9-48.8c-2.8-3.5-6.9-5.6-11.4-5.7l-286.2-4.3
			c-6.2-0.1-11.4,4.6-11.9,10.7l-10.1,111.3h-10.1c-3.2,0-6.3,1.4-8.4,4C128,307.2,127.1,310.5,127.8,313.7z M391.1,228.5v-29.2
			l66.9,1c1.4,0,2.8,0.7,3.6,1.8l20,26.4h-13.4v20.3h-66L391.1,228.5z M278.6,234.1v-36.5l85.7,1.3v49.9h-71.1L278.6,234.1z
			 M256.6,248.7h-79.7l3.5-50.4c0.1-1.3,1.1-2.2,2.4-2.2l73.8,1.1V248.7L256.6,248.7z"/>
	</g>
</g>
</svg>
